<?xml version="1.0"?>
<svg xmlns="http://www.w3.org/2000/svg" id="outline" viewBox="0 0 512 512" width="512" height="512"><path d="M288,376a88,88,0,1,0,88-88A88.1,88.1,0,0,0,288,376Zm160,0a72,72,0,1,1-72-72A72.081,72.081,0,0,1,448,376Z"/><path d="M352,376a24,24,0,1,0,24-24A24.027,24.027,0,0,0,352,376Zm32,0a8,8,0,1,1-8-8A8.009,8.009,0,0,1,384,376Z"/><path d="M88,184a8,8,0,0,0,8,8h32a8,8,0,0,0,8-8V160h24a8,8,0,0,0,8-8V120a8,8,0,0,0-8-8H136V88a8,8,0,0,0-8-8H96a8,8,0,0,0-8,8v24H64a8,8,0,0,0-8,8v32a8,8,0,0,0,8,8H88ZM72,144V128H96a8,8,0,0,0,8-8V96h16v24a8,8,0,0,0,8,8h24v16H128a8,8,0,0,0-8,8v24H104V152a8,8,0,0,0-8-8Z"/><path d="M109.266,255.519a8.011,8.011,0,0,0,5.468,0A142.12,142.12,0,0,0,208,122.362V72a8,8,0,0,0-5.266-7.519l-88-32a8.014,8.014,0,0,0-5.468,0l-88,32A8,8,0,0,0,16,72v50.362A142.122,142.122,0,0,0,109.266,255.519ZM32,77.6l72-26.182V64h16V51.422L192,77.6v44.758a126.125,126.125,0,0,1-72,113.625V208H104v27.987A126.127,126.127,0,0,1,32,122.362Z"/><path d="M488,136H440a8,8,0,0,0-8,8v8H416a8,8,0,0,0-8,8V260.339a119.162,119.162,0,0,0-16-3.27v-42.2A38.922,38.922,0,0,0,359.862,176.6,53.619,53.619,0,0,0,375.688,144H384a24,24,0,0,0,8-46.624V56a24.043,24.043,0,0,0-17.031-22.969A24.043,24.043,0,0,0,352,16H322.561a62.559,62.559,0,0,0-23.337,4.494L295.81,21.86a46.828,46.828,0,0,1-43.372-4.516A8,8,0,0,0,240,24V61.088a50.915,50.915,0,0,0,24,43.189v33.967A53.585,53.585,0,0,0,280.138,176.6,38.922,38.922,0,0,0,248,214.867V296H212.2a37.207,37.207,0,0,0-26.483,10.97L180,312.686l-6.343-6.343a8,8,0,0,0-11.314,0L92.687,376H60a44,44,0,0,0,0,88h60a8,8,0,0,0,5.657-2.343L131.314,456H168a8,8,0,0,0,5.657-2.343L235.314,392h21.755A120,120,0,1,0,424,266.03V168h8v8a8,8,0,0,0,8,8h48a8,8,0,0,0,8-8V144A8,8,0,0,0,488,136ZM360,257.069V232h16v24A120.675,120.675,0,0,0,360,257.069ZM384,128h-8V112h8a8,8,0,0,1,0,16ZM256,37.077a62.826,62.826,0,0,0,45.753-.362l3.414-1.365A46.618,46.618,0,0,1,322.561,32H352a8.009,8.009,0,0,1,8,8,8,8,0,0,0,8,8,8.009,8.009,0,0,1,8,8V96h-8.887A7.122,7.122,0,0,1,360,88.887V64a8,8,0,0,0-13.657-5.657L321.255,83.432A42.628,42.628,0,0,1,290.912,96,34.951,34.951,0,0,1,256,61.088Zm24,73.733A50.843,50.843,0,0,0,290.912,112a58.523,58.523,0,0,0,41.657-17.255L344,83.314v5.573a23.15,23.15,0,0,0,16,21.988v27.369A37.8,37.8,0,0,1,322.244,176h-4.488A37.8,37.8,0,0,1,280,138.244ZM286.867,192h66.266A22.893,22.893,0,0,1,376,214.867V216H352a8,8,0,0,0-8,8v36.339a119.92,119.92,0,0,0-48,26.3V224a8,8,0,0,0-8-8H264v-1.133A22.893,22.893,0,0,1,286.867,192ZM264,232h16v64H264Zm-66.97,86.283A21.311,21.311,0,0,1,212.2,312h62.338a119.419,119.419,0,0,0-14.2,32H216a8,8,0,0,0-3.751.935L191.314,324ZM116.687,448H60a28,28,0,0,1,0-56H96a8,8,0,0,0,5.657-2.343L168,323.314,204.687,360Zm48-8H147.314l74.343-74.343A7.973,7.973,0,0,0,224,360.005v20.681ZM240,376V360h17.069A120.675,120.675,0,0,0,256,376Zm240,0A104,104,0,1,1,376,272,104.118,104.118,0,0,1,480,376Zm0-208H448V152h32Z"/></svg>
